# xmcd
#
# Track frame offsets:
#	150
#	15255
#	31927
#	43477
#	57445
#	70820
#	84462
#	94437
#	110830
#	123325
#	140280
#	152842
#	162590
#	174252
#	184762
#	196340
#
# Disc length: 2775 seconds
#
# Revision: 1
# Processed by: cddbd v1.5.2PL0 Copyright (c) Steve Scherf et al.
# Submitted via: EZCDAudioConverter 8.1.0.1
#
DISCID=dc0ad510
DTITLE=The Rolling Stones - The Rolling Stones (BRS 84270)
DYEAR=19890
DGENRE=Blues Rock
TTITLE0=It's All Over Now
TTITLE1=Tell Me
TTITLE2=Empty Heart
TTITLE3=Around and Around
TTITLE4=Time Is On My Side
TTITLE5=Little Red Rooster
TTITLE6=Play with Fire
TTITLE7=The Last Time
TTITLE8=Heart of Stone
TTITLE9=(I Can't Get No) Satisfaction
TTITLE10=Under The BoardWalk
TTITLE11=Pain in My Heart
TTITLE12=Off The Hook
TTITLE13=(Get Your Kicks On) Route 66
TTITLE14=Good Times, Bad Times
TTITLE15=You Better Move On
EXTD=
EXTT0=
EXTT1=
EXTT2=
EXTT3=
EXTT4=
EXTT5=
EXTT6=
EXTT7=
EXTT8=
EXTT9=
EXTT10=
EXTT11=
EXTT12=
EXTT13=
EXTT14=
EXTT15=
PLAYORDER=
